<mxfile host="app.diagrams.net" modified="2023-04-25T06:57:07.597Z" agent="Mozilla/5.0 (Macintosh; Intel Mac OS X 10_15_7) AppleWebKit/537.36 (KHTML, like Gecko) Chrome/112.0.0.0 Safari/537.36" etag="WFDtfL_vhZ1HbmiX8REG" version="21.1.7" type="github">
  <diagram id="jMxdvuOTT5mubzCPgvYy" name="第 1 页">
    <mxGraphModel dx="1434" dy="686" grid="1" gridSize="10" guides="1" tooltips="1" connect="1" arrows="1" fold="1" page="1" pageScale="1" pageWidth="827" pageHeight="1169" math="0" shadow="0">
      <root>
        <mxCell id="0" />
        <mxCell id="1" parent="0" />
        <mxCell id="2N2f7JUQtTN6OCUH74r--1" value="Jupiter" style="rounded=0;whiteSpace=wrap;html=1;fillColor=#e1d5e7;strokeColor=#9673a6;" parent="1" vertex="1">
          <mxGeometry x="170" y="460" width="690" height="70" as="geometry" />
        </mxCell>
        <mxCell id="2N2f7JUQtTN6OCUH74r--3" value="Sentinel" style="rounded=0;whiteSpace=wrap;html=1;fillColor=#f8cecc;strokeColor=#b85450;" parent="1" vertex="1">
          <mxGeometry x="170" y="555" width="690" height="70" as="geometry" />
        </mxCell>
        <mxCell id="2N2f7JUQtTN6OCUH74r--5" value="" style="rounded=0;whiteSpace=wrap;html=1;fillColor=#ffe6cc;strokeColor=#d79b00;" parent="1" vertex="1">
          <mxGeometry x="170" y="660" width="520" height="330" as="geometry" />
        </mxCell>
        <mxCell id="2N2f7JUQtTN6OCUH74r--6" value="笔记商详-RN" style="rounded=0;whiteSpace=wrap;html=1;" parent="1" vertex="1">
          <mxGeometry x="200" y="690" width="120" height="60" as="geometry" />
        </mxCell>
        <mxCell id="2N2f7JUQtTN6OCUH74r--7" value="主商详-RN" style="rounded=0;whiteSpace=wrap;html=1;" parent="1" vertex="1">
          <mxGeometry x="370" y="690" width="120" height="60" as="geometry" />
        </mxCell>
        <mxCell id="2N2f7JUQtTN6OCUH74r--8" value="直播商品详情-RN" style="rounded=0;whiteSpace=wrap;html=1;" parent="1" vertex="1">
          <mxGeometry x="540" y="690" width="120" height="60" as="geometry" />
        </mxCell>
        <mxCell id="2N2f7JUQtTN6OCUH74r--9" value="笔记商品详情/Native" style="rounded=0;whiteSpace=wrap;html=1;" parent="1" vertex="1">
          <mxGeometry x="200" y="795" width="120" height="60" as="geometry" />
        </mxCell>
        <mxCell id="2N2f7JUQtTN6OCUH74r--12" value="户外商品详情" style="rounded=0;whiteSpace=wrap;html=1;" parent="1" vertex="1">
          <mxGeometry x="370" y="905" width="120" height="60" as="geometry" />
        </mxCell>
        <mxCell id="2N2f7JUQtTN6OCUH74r--14" value="加入购物车&lt;br&gt;详情" style="rounded=0;whiteSpace=wrap;html=1;" parent="1" vertex="1">
          <mxGeometry x="540" y="905" width="120" height="60" as="geometry" />
        </mxCell>
        <mxCell id="2N2f7JUQtTN6OCUH74r--15" value="NFT 商品详情" style="rounded=0;whiteSpace=wrap;html=1;" parent="1" vertex="1">
          <mxGeometry x="200" y="905" width="120" height="60" as="geometry" />
        </mxCell>
        <mxCell id="2N2f7JUQtTN6OCUH74r--21" value="" style="rounded=0;whiteSpace=wrap;html=1;fillColor=#dae8fc;strokeColor=#6c8ebf;" parent="1" vertex="1">
          <mxGeometry x="170" y="1169" width="900" height="100" as="geometry" />
        </mxCell>
        <mxCell id="2N2f7JUQtTN6OCUH74r--22" value="DB" style="shape=cylinder3;whiteSpace=wrap;html=1;boundedLbl=1;backgroundOutline=1;size=15;" parent="1" vertex="1">
          <mxGeometry x="220" y="1179" width="60" height="80" as="geometry" />
        </mxCell>
        <mxCell id="2N2f7JUQtTN6OCUH74r--24" value="Redis" style="shape=cylinder3;whiteSpace=wrap;html=1;boundedLbl=1;backgroundOutline=1;size=15;" parent="1" vertex="1">
          <mxGeometry x="414" y="1179" width="60" height="80" as="geometry" />
        </mxCell>
        <mxCell id="2N2f7JUQtTN6OCUH74r--25" value="LocalCache" style="shape=cylinder3;whiteSpace=wrap;html=1;boundedLbl=1;backgroundOutline=1;size=15;" parent="1" vertex="1">
          <mxGeometry x="590" y="1179" width="60" height="80" as="geometry" />
        </mxCell>
        <mxCell id="2N2f7JUQtTN6OCUH74r--26" value="Rpc" style="shape=cylinder3;whiteSpace=wrap;html=1;boundedLbl=1;backgroundOutline=1;size=15;" parent="1" vertex="1">
          <mxGeometry x="780" y="1179" width="60" height="80" as="geometry" />
        </mxCell>
        <mxCell id="2N2f7JUQtTN6OCUH74r--27" value="" style="rounded=0;whiteSpace=wrap;html=1;fillColor=#d5e8d4;strokeColor=#82b366;" parent="1" vertex="1">
          <mxGeometry x="920" y="460" width="150" height="680" as="geometry" />
        </mxCell>
        <mxCell id="2N2f7JUQtTN6OCUH74r--28" value="阿波罗配置" style="whiteSpace=wrap;html=1;aspect=fixed;" parent="1" vertex="1">
          <mxGeometry x="955" y="475" width="80" height="80" as="geometry" />
        </mxCell>
        <mxCell id="2N2f7JUQtTN6OCUH74r--29" value="告警" style="whiteSpace=wrap;html=1;aspect=fixed;" parent="1" vertex="1">
          <mxGeometry x="955" y="620" width="80" height="80" as="geometry" />
        </mxCell>
        <mxCell id="2N2f7JUQtTN6OCUH74r--32" value="MQ" style="shape=cylinder3;whiteSpace=wrap;html=1;boundedLbl=1;backgroundOutline=1;size=15;" parent="1" vertex="1">
          <mxGeometry x="965" y="1179" width="60" height="80" as="geometry" />
        </mxCell>
        <mxCell id="2N2f7JUQtTN6OCUH74r--33" value="降级" style="whiteSpace=wrap;html=1;aspect=fixed;" parent="1" vertex="1">
          <mxGeometry x="955" y="750" width="80" height="80" as="geometry" />
        </mxCell>
        <mxCell id="2N2f7JUQtTN6OCUH74r--34" value="ab test" style="whiteSpace=wrap;html=1;aspect=fixed;" parent="1" vertex="1">
          <mxGeometry x="955" y="885" width="80" height="80" as="geometry" />
        </mxCell>
        <mxCell id="2N2f7JUQtTN6OCUH74r--35" value="job 刷新&lt;br&gt;local cache" style="whiteSpace=wrap;html=1;aspect=fixed;" parent="1" vertex="1">
          <mxGeometry x="955" y="1030" width="80" height="80" as="geometry" />
        </mxCell>
        <mxCell id="ktO8ClSaEMVY0alm_gdH-1" value="" style="rounded=0;whiteSpace=wrap;html=1;fillColor=#fff2cc;strokeColor=#d6b656;" parent="1" vertex="1">
          <mxGeometry x="170" y="1020" width="690" height="120" as="geometry" />
        </mxCell>
        <mxCell id="2N2f7JUQtTN6OCUH74r--18" value="商品模板管理" style="rounded=0;whiteSpace=wrap;html=1;" parent="1" vertex="1">
          <mxGeometry x="200" y="1050" width="120" height="60" as="geometry" />
        </mxCell>
        <mxCell id="2N2f7JUQtTN6OCUH74r--19" value="商品组件管理" style="rounded=0;whiteSpace=wrap;html=1;" parent="1" vertex="1">
          <mxGeometry x="360" y="1050" width="120" height="60" as="geometry" />
        </mxCell>
        <mxCell id="2N2f7JUQtTN6OCUH74r--20" value="lego 模板管理" style="rounded=0;whiteSpace=wrap;html=1;" parent="1" vertex="1">
          <mxGeometry x="530" y="1050" width="120" height="60" as="geometry" />
        </mxCell>
        <mxCell id="ktO8ClSaEMVY0alm_gdH-2" value="卡片管理" style="rounded=0;whiteSpace=wrap;html=1;" parent="1" vertex="1">
          <mxGeometry x="700" y="1050" width="120" height="60" as="geometry" />
        </mxCell>
        <mxCell id="ktO8ClSaEMVY0alm_gdH-3" value="直播商品详情-Native" style="rounded=0;whiteSpace=wrap;html=1;" parent="1" vertex="1">
          <mxGeometry x="540" y="795" width="120" height="60" as="geometry" />
        </mxCell>
        <mxCell id="ktO8ClSaEMVY0alm_gdH-4" value="主商详-Native" style="rounded=0;whiteSpace=wrap;html=1;" parent="1" vertex="1">
          <mxGeometry x="370" y="795" width="120" height="60" as="geometry" />
        </mxCell>
        <mxCell id="ktO8ClSaEMVY0alm_gdH-5" value="" style="rounded=0;whiteSpace=wrap;html=1;fillColor=#ffe6cc;strokeColor=#d79b00;" parent="1" vertex="1">
          <mxGeometry x="710" y="660" width="150" height="330" as="geometry" />
        </mxCell>
        <mxCell id="2N2f7JUQtTN6OCUH74r--11" value="底纹词" style="rounded=0;whiteSpace=wrap;html=1;" parent="1" vertex="1">
          <mxGeometry x="725" y="690" width="120" height="60" as="geometry" />
        </mxCell>
        <mxCell id="ktO8ClSaEMVY0alm_gdH-6" value="领券" style="rounded=0;whiteSpace=wrap;html=1;" parent="1" vertex="1">
          <mxGeometry x="725" y="795" width="120" height="60" as="geometry" />
        </mxCell>
        <mxCell id="ktO8ClSaEMVY0alm_gdH-7" value="卖家笔记" style="rounded=0;whiteSpace=wrap;html=1;" parent="1" vertex="1">
          <mxGeometry x="725" y="905" width="120" height="60" as="geometry" />
        </mxCell>
      </root>
    </mxGraphModel>
  </diagram>
</mxfile>
